<svg width="232" height="199" viewBox="0 0 232 199" fill="none" xmlns="http://www.w3.org/2000/svg">
<mask id="mask0_2906_19027" style="mask-type:alpha" maskUnits="userSpaceOnUse" x="118" y="9" width="110" height="125">
<rect x="118.519" y="9.16797" width="108.868" height="123.845" fill="#D9D9D9"/>
</mask>
<g mask="url(#mask0_2906_19027)">
</g>
<g clip-path="url(#clip0_2906_19027)">
<path d="M114.636 30.4975C113.429 30.5179 112.399 30.2629 111.547 29.7377C110.696 29.2124 110.036 28.4781 109.575 27.5448C109.113 26.6116 108.865 25.5407 108.84 24.3422C108.824 23.1234 109.042 22.0372 109.484 21.0887C109.925 20.1401 110.569 19.3956 111.41 18.8448C112.252 18.2991 113.266 18.0136 114.458 17.9932C115.746 17.9728 116.846 18.2736 117.769 18.9009C118.692 19.5282 119.306 20.4002 119.615 21.5119L117.359 22.2106C117.12 21.5476 116.745 21.0377 116.228 20.6756C115.711 20.3135 115.117 20.1401 114.458 20.1503C113.708 20.1605 113.099 20.3492 112.622 20.7113C112.151 21.0734 111.801 21.5629 111.578 22.18C111.355 22.797 111.248 23.5008 111.253 24.2912C111.279 25.5101 111.573 26.4943 112.136 27.2388C112.698 27.9834 113.515 28.3455 114.59 28.3251C115.325 28.3149 115.913 28.1313 116.365 27.7845C116.811 27.4377 117.151 26.9431 117.379 26.3056L119.701 26.8156C119.336 27.9783 118.712 28.8758 117.84 29.5082C116.963 30.1406 115.893 30.4669 114.63 30.4873L114.636 30.4975Z" fill="black"/>
<path d="M125.066 31.1609C123.9 30.9977 122.926 30.5897 122.14 29.942C121.354 29.2944 120.796 28.4733 120.462 27.4789C120.127 26.4845 120.041 25.3778 120.208 24.159C120.375 22.9351 120.766 21.8897 121.369 21.0278C121.973 20.166 122.738 19.5336 123.666 19.1359C124.594 18.7381 125.634 18.6208 126.775 18.7789C127.941 18.9421 128.915 19.35 129.701 19.9977C130.481 20.6454 131.044 21.4664 131.384 22.4608C131.724 23.4553 131.81 24.5517 131.643 25.7603C131.475 26.9842 131.09 28.0297 130.486 28.8915C129.883 29.7534 129.122 30.3908 128.194 30.7937C127.267 31.1966 126.222 31.3189 125.061 31.1558L125.066 31.1609ZM125.36 29.019C126.475 29.1771 127.363 28.9119 128.017 28.2337C128.671 27.5554 129.082 26.6171 129.249 25.4237C129.417 24.1998 129.275 23.1799 128.818 22.369C128.362 21.5582 127.581 21.0737 126.481 20.9207C125.725 20.8136 125.076 20.9003 124.538 21.1757C124.001 21.4511 123.57 21.8744 123.25 22.4455C122.931 23.0167 122.713 23.7001 122.601 24.4956C122.429 25.7246 122.576 26.7497 123.032 27.5656C123.494 28.3815 124.265 28.866 125.35 29.019H125.36Z" fill="black"/>
<path d="M131.521 31.8402L135.081 20.5547L137.023 21.1717L135.993 24.4304L136.252 24.512L133.722 32.5389L131.521 31.8351V31.8402ZM139.411 34.3544L141.161 28.8059C141.297 28.3674 141.404 27.9033 141.48 27.4188C141.556 26.9344 141.551 26.4601 141.47 25.996C141.389 25.532 141.206 25.124 140.912 24.7619C140.618 24.3998 140.172 24.1245 139.578 23.9358C139.188 23.8134 138.803 23.7573 138.417 23.7777C138.032 23.7981 137.662 23.9052 137.312 24.1092C136.962 24.3131 136.637 24.6242 136.343 25.0424C136.049 25.4606 135.796 26.0062 135.583 26.6743L134.391 25.7308C134.716 24.7058 135.187 23.8644 135.816 23.2014C136.445 22.5385 137.185 22.0999 138.037 21.8908C138.889 21.6817 139.822 21.7327 140.831 22.0591C141.607 22.3039 142.22 22.6404 142.667 23.0586C143.113 23.4768 143.437 23.9409 143.64 24.4559C143.843 24.971 143.949 25.4912 143.975 26.0266C143.995 26.5621 143.965 27.0721 143.884 27.5514C143.802 28.0308 143.706 28.4439 143.595 28.7957L141.617 35.0683L139.416 34.3646L139.411 34.3544Z" fill="black"/>
<path d="M148.787 38.6061C148.057 38.4175 147.372 38.1523 146.743 37.8259C146.11 37.4944 145.597 37.0915 145.202 36.6173C144.806 36.143 144.599 35.5973 144.583 34.9803C144.563 34.4295 144.654 33.9196 144.857 33.4555C145.06 32.9914 145.298 32.4661 145.577 31.8848L150.085 22.4453L152.149 23.4397L147.692 32.7772C147.489 33.2056 147.316 33.5779 147.174 33.8992C147.033 34.2204 146.972 34.5213 146.992 34.7967C147.033 35.3169 147.296 35.7299 147.783 36.0359C148.27 36.3419 148.883 36.6122 149.629 36.8468L148.792 38.5959L148.787 38.6061ZM145.836 26.0916L146.627 24.4291L153.878 27.9325L153.087 29.595L145.836 26.0916V26.0916Z" fill="black"/>
<path d="M152.22 41.1107C151.49 40.6314 150.967 40.0908 150.653 39.4941C150.339 38.8975 150.202 38.2906 150.242 37.6736C150.283 37.0565 150.481 36.4802 150.831 35.9448C151.16 35.445 151.53 35.0625 151.956 34.7973C152.377 34.5373 152.854 34.3843 153.371 34.3486C153.893 34.3129 154.456 34.3792 155.07 34.5475C155.592 34.7055 156.16 34.9197 156.779 35.19C157.397 35.4552 158.036 35.751 158.7 36.0672C159.365 36.3833 160.029 36.6995 160.688 37.0106L159.745 36.9392C160.262 36.1692 160.48 35.4858 160.384 34.8891C160.288 34.2925 159.836 33.7213 159.015 33.1808C158.498 32.8391 157.945 32.6453 157.357 32.6045C156.768 32.5637 156.206 32.7626 155.673 33.2062L154.253 31.4826C155.049 30.7941 155.957 30.4269 156.966 30.3759C157.975 30.3249 159.05 30.6768 160.186 31.4265C161.068 32.0078 161.733 32.6657 162.189 33.4C162.645 34.1344 162.813 34.9299 162.686 35.7816C162.63 36.2099 162.509 36.6179 162.306 37.0004C162.108 37.3829 161.87 37.7857 161.601 38.1988L157.62 44.2929L155.932 43.1812L157.412 40.9169L157.549 41.4269C156.647 41.9165 155.759 42.1358 154.892 42.0899C154.025 42.044 153.128 41.7176 152.21 41.1107H152.22ZM153.579 39.7644C154.121 40.1214 154.649 40.3305 155.161 40.3968C155.673 40.4631 156.15 40.4223 156.581 40.2795C157.012 40.1367 157.372 39.9276 157.656 39.6522C157.95 39.4278 158.224 39.1372 158.477 38.7802C158.731 38.4232 158.929 38.1376 159.076 37.9132L159.547 38.5507C158.888 38.2447 158.285 37.9642 157.747 37.7143C157.21 37.4645 156.713 37.2401 156.271 37.0463C155.83 36.8525 155.42 36.7046 155.044 36.5975C154.725 36.5159 154.421 36.4751 154.132 36.4649C153.843 36.4598 153.584 36.5108 153.346 36.6128C153.107 36.7148 152.904 36.9035 152.732 37.1636C152.565 37.4186 152.473 37.6991 152.458 37.9999C152.443 38.3008 152.524 38.6017 152.702 38.9026C152.879 39.2035 153.173 39.489 153.579 39.7593V39.7644Z" fill="black"/>
<path d="M162.088 48.6912C161.195 47.8753 160.612 46.9879 160.349 46.0139C160.085 45.045 160.1 44.0607 160.399 43.0561C160.698 42.0566 161.241 41.108 162.037 40.2156C162.859 39.3129 163.751 38.6704 164.714 38.2828C165.678 37.8952 166.657 37.7881 167.645 37.9666C168.634 38.1451 169.567 38.6347 170.45 39.4404C171.403 40.3074 172.006 41.2865 172.25 42.3829C172.498 43.4743 172.356 44.535 171.824 45.56L169.704 44.5197C169.978 43.872 170.054 43.2397 169.917 42.6226C169.785 42.0056 169.471 41.4701 168.979 41.0264C168.426 40.5216 167.848 40.2411 167.26 40.1799C166.672 40.1187 166.079 40.236 165.5 40.5369C164.922 40.8377 164.36 41.2763 163.832 41.8577C163.021 42.7654 162.57 43.6885 162.478 44.6166C162.382 45.5447 162.732 46.3709 163.533 47.1001C164.076 47.5948 164.633 47.8702 165.196 47.9263C165.759 47.9824 166.342 47.8549 166.946 47.5438L168.294 49.5072C167.24 50.1038 166.175 50.3333 165.105 50.1905C164.035 50.0528 163.031 49.5531 162.093 48.7014L162.088 48.6912Z" fill="black"/>
<path d="M170.825 57.6722C170.237 57.1979 169.719 56.6828 169.273 56.1219C168.827 55.5609 168.523 54.9846 168.355 54.388C168.188 53.7913 168.218 53.21 168.452 52.6388C168.66 52.1288 168.949 51.7005 169.324 51.3588C169.699 51.0171 170.125 50.6346 170.617 50.2216L178.558 43.4492L180.038 45.2035L172.179 51.9045C171.819 52.2104 171.509 52.4807 171.251 52.7204C170.992 52.9601 170.815 53.2049 170.723 53.465C170.551 53.9596 170.622 54.4441 170.946 54.9235C171.266 55.4028 171.722 55.9026 172.3 56.4177L170.83 57.6722H170.825ZM173.203 45.0352L174.597 43.8419L179.8 50.0125L178.406 51.2058L173.203 45.0352V45.0352Z" fill="black"/>
<path d="M175.18 64.9465C174.775 64.2377 174.552 63.5747 174.506 62.9627C174.46 62.3508 174.536 61.7847 174.734 61.2747C174.932 60.7597 175.206 60.3007 175.551 59.8927C175.895 59.4848 176.26 59.1329 176.646 58.8371C177.031 58.5413 177.381 58.3016 177.696 58.1232L183.375 54.8594L184.521 56.8788L179.496 59.7653C179.1 59.9947 178.71 60.2599 178.324 60.571C177.944 60.877 177.625 61.2289 177.371 61.6215C177.117 62.0142 176.975 62.4477 176.95 62.9117C176.92 63.3758 177.062 63.8858 177.371 64.4314C177.574 64.7884 177.822 65.0893 178.121 65.3392C178.416 65.5891 178.765 65.7574 179.156 65.8491C179.551 65.9409 179.998 65.9307 180.5 65.8236C181.002 65.7166 181.554 65.4922 182.158 65.1403L182.396 66.6447C181.468 67.1751 180.55 67.4708 179.643 67.532C178.735 67.5932 177.893 67.4096 177.128 66.9813C176.357 66.558 175.713 65.8797 175.185 64.9516L175.18 64.9465ZM177.386 68.1899L180.342 66.4917L180.206 66.252L187.477 62.0754L188.618 64.0847L178.39 69.9544L177.386 68.1848V68.1899Z" fill="black"/>
<path d="M180.226 75.6177C179.719 74.2714 179.602 73.0628 179.876 71.9868C180.15 70.9158 180.784 70.0795 181.788 69.4777L182.949 71.5431C182.432 71.895 182.097 72.3845 181.955 73.0067C181.813 73.6288 181.879 74.3071 182.158 75.0466C182.411 75.7146 182.741 76.1889 183.157 76.4643C183.573 76.7396 184.019 76.7855 184.49 76.6071C184.769 76.5 184.972 76.347 185.094 76.1481C185.215 75.9492 185.276 75.6075 185.276 75.1231C185.276 74.6386 185.226 73.9195 185.129 72.9659C185.018 71.9205 184.997 71.0688 185.068 70.4059C185.139 69.7429 185.322 69.2176 185.611 68.8403C185.9 68.4629 186.311 68.1671 186.848 67.9631C187.513 67.7081 188.162 67.6673 188.79 67.8356C189.419 68.0039 189.992 68.3558 190.509 68.9015C191.022 69.442 191.442 70.1509 191.772 71.0178C192.091 71.8644 192.244 72.6701 192.228 73.4351C192.213 74.2 192.041 74.8783 191.706 75.4749C191.371 76.0716 190.895 76.5306 190.276 76.862L189.054 74.8171C189.556 74.5417 189.881 74.1337 190.028 73.5932C190.175 73.0526 190.134 72.4406 189.906 71.7522C189.688 71.0943 189.384 70.6047 188.993 70.2937C188.598 69.9826 188.192 69.9061 187.771 70.0642C187.528 70.156 187.35 70.3141 187.234 70.5334C187.122 70.7526 187.071 71.1147 187.082 71.6145C187.092 72.1193 187.153 72.8435 187.259 73.7971C187.371 74.8171 187.386 75.6585 187.3 76.3113C187.218 76.9691 187.021 77.4893 186.711 77.8769C186.402 78.2644 185.966 78.5653 185.403 78.7795C184.313 79.1926 183.314 79.1212 182.396 78.5551C181.478 77.9942 180.753 77.0099 180.231 75.6126L180.226 75.6177Z" fill="black"/>
<path d="M184.571 98.196C184.536 96.9823 184.769 95.942 185.281 95.0801C185.794 94.2183 186.509 93.5451 187.431 93.0657C188.354 92.5864 189.414 92.3263 190.601 92.2804C191.813 92.2498 192.893 92.4487 193.841 92.8822C194.789 93.3156 195.54 93.948 196.097 94.7843C196.655 95.6207 196.949 96.6406 196.99 97.839C197.03 99.1343 196.746 100.246 196.133 101.184C195.519 102.123 194.667 102.755 193.562 103.081L192.837 100.822C193.491 100.578 193.993 100.19 194.343 99.6596C194.693 99.1343 194.86 98.5377 194.84 97.8747C194.814 97.12 194.622 96.508 194.252 96.0389C193.886 95.5697 193.39 95.2229 192.776 95.0087C192.162 94.7945 191.458 94.6976 190.672 94.7129C189.46 94.7588 188.486 95.0699 187.756 95.6411C187.026 96.2173 186.676 97.0435 186.711 98.1246C186.732 98.8641 186.919 99.4556 187.274 99.8993C187.624 100.343 188.121 100.68 188.76 100.899L188.288 103.24C187.127 102.888 186.23 102.276 185.586 101.404C184.947 100.532 184.602 99.4607 184.566 98.1909L184.571 98.196Z" fill="black"/>
<path d="M184.064 108.688C184.211 107.515 184.597 106.526 185.231 105.73C185.864 104.935 186.671 104.358 187.66 104.007C188.643 103.655 189.744 103.553 190.956 103.706C192.172 103.859 193.217 104.231 194.084 104.828C194.951 105.424 195.59 106.184 196.001 107.112C196.412 108.04 196.543 109.081 196.402 110.233C196.254 111.406 195.869 112.396 195.235 113.191C194.601 113.987 193.795 114.563 192.811 114.92C191.828 115.277 190.737 115.379 189.531 115.226C188.314 115.073 187.269 114.701 186.402 114.109C185.535 113.517 184.891 112.758 184.475 111.829C184.059 110.901 183.922 109.851 184.069 108.683L184.064 108.688ZM186.194 108.953C186.057 110.075 186.326 110.963 187.016 111.615C187.7 112.263 188.638 112.666 189.83 112.814C191.047 112.967 192.061 112.809 192.862 112.334C193.663 111.865 194.135 111.075 194.272 109.963C194.368 109.203 194.272 108.55 193.993 108.015C193.714 107.479 193.283 107.051 192.71 106.74C192.137 106.424 191.452 106.22 190.661 106.118C189.434 105.965 188.42 106.123 187.614 106.597C186.808 107.071 186.336 107.857 186.204 108.953H186.194Z" fill="black"/>
<path d="M181.103 123.147L186.645 124.824C187.087 124.957 187.548 125.059 188.03 125.125C188.511 125.192 188.988 125.181 189.444 125.095C189.901 125.008 190.312 124.814 190.667 124.513C191.021 124.212 191.29 123.759 191.468 123.157C191.584 122.764 191.63 122.376 191.61 121.984C191.584 121.596 191.468 121.224 191.265 120.877C191.057 120.53 190.743 120.209 190.322 119.918C189.901 119.628 189.353 119.378 188.689 119.179L189.607 117.97C190.631 118.281 191.478 118.746 192.142 119.368C192.806 119.99 193.258 120.729 193.476 121.581C193.699 122.433 193.658 123.371 193.354 124.396C193.121 125.181 192.796 125.798 192.391 126.257C191.985 126.716 191.523 127.048 191.016 127.257C190.509 127.466 189.992 127.588 189.46 127.614C188.927 127.644 188.42 127.619 187.944 127.542C187.467 127.466 187.051 127.374 186.706 127.272L180.444 125.38L181.108 123.152L181.103 123.147ZM183.486 115.176L194.764 118.587L194.176 120.551L190.92 119.567L190.839 119.827L182.822 117.404L183.486 115.176V115.176Z" fill="black"/>
<path d="M177.011 132.652C177.189 131.912 177.437 131.224 177.757 130.581C178.076 129.939 178.467 129.418 178.933 129.015C179.4 128.613 179.937 128.393 180.551 128.368C181.098 128.342 181.605 128.424 182.072 128.623C182.538 128.822 183.061 129.051 183.644 129.321L193.096 133.717L192.137 135.808L182.787 131.458C182.356 131.259 181.986 131.091 181.661 130.953C181.342 130.816 181.042 130.76 180.764 130.785C180.246 130.836 179.836 131.106 179.542 131.601C179.247 132.096 178.989 132.718 178.761 133.467L177.011 132.652V132.652ZM189.414 129.505L191.078 130.28L187.7 137.624L186.037 136.849L189.414 129.505Z" fill="black"/>
<path d="M174.572 136.132C175.039 135.393 175.566 134.858 176.159 134.536C176.753 134.215 177.351 134.067 177.959 134.098C178.573 134.128 179.146 134.317 179.689 134.664C180.191 134.985 180.576 135.357 180.845 135.781C181.113 136.204 181.266 136.673 181.311 137.198C181.357 137.724 181.301 138.29 181.139 138.907C180.987 139.432 180.784 140.008 180.525 140.63C180.267 141.253 179.988 141.905 179.678 142.578C179.374 143.252 179.07 143.925 178.771 144.588L178.827 143.639C179.597 144.149 180.282 144.353 180.875 144.251C181.468 144.149 182.031 143.685 182.554 142.849C182.883 142.323 183.066 141.768 183.101 141.171C183.137 140.574 182.929 140.018 182.478 139.488L184.171 138.035C184.866 138.825 185.246 139.728 185.312 140.748C185.378 141.762 185.043 142.849 184.313 144.001C183.75 144.894 183.106 145.577 182.381 146.046C181.656 146.515 180.87 146.694 180.018 146.582C179.592 146.536 179.187 146.413 178.801 146.22C178.416 146.026 178.015 145.796 177.599 145.526L171.479 141.615L172.559 139.901L174.831 141.355L174.324 141.497C173.827 140.6 173.594 139.712 173.624 138.835C173.654 137.958 173.969 137.055 174.557 136.122L174.572 136.132ZM175.931 137.479C175.586 138.03 175.383 138.56 175.328 139.08C175.272 139.6 175.318 140.074 175.465 140.508C175.612 140.941 175.825 141.298 176.104 141.579C176.332 141.87 176.626 142.145 176.981 142.395C177.341 142.645 177.63 142.844 177.848 142.981L177.219 143.466C177.513 142.798 177.782 142.186 178.025 141.64C178.269 141.094 178.482 140.595 178.664 140.146C178.852 139.697 178.994 139.284 179.095 138.907C179.171 138.58 179.212 138.274 179.212 137.989C179.212 137.698 179.161 137.438 179.055 137.198C178.948 136.959 178.761 136.755 178.497 136.586C178.238 136.423 177.959 136.336 177.66 136.326C177.361 136.316 177.062 136.403 176.768 136.586C176.474 136.77 176.195 137.066 175.931 137.479V137.479Z" fill="black"/>
<path d="M167.189 146.16C167.985 145.247 168.862 144.65 169.826 144.37C170.784 144.089 171.768 144.089 172.767 144.375C173.766 144.661 174.714 145.196 175.617 145.981C176.524 146.792 177.179 147.68 177.579 148.649C177.98 149.612 178.096 150.597 177.934 151.591C177.772 152.585 177.3 153.534 176.509 154.437C175.662 155.411 174.694 156.028 173.614 156.293C172.534 156.558 171.479 156.431 170.45 155.916L171.454 153.769C172.098 154.039 172.731 154.1 173.345 153.957C173.959 153.814 174.486 153.493 174.922 152.993C175.414 152.427 175.688 151.846 175.738 151.249C175.789 150.653 175.662 150.066 175.358 149.485C175.054 148.903 174.608 148.348 174.025 147.822C173.107 147.022 172.189 146.583 171.261 146.502C170.338 146.42 169.517 146.787 168.812 147.598C168.325 148.154 168.061 148.715 168.016 149.281C167.97 149.847 168.107 150.433 168.421 151.035L166.484 152.422C165.876 151.372 165.632 150.306 165.754 149.225C165.876 148.149 166.357 147.129 167.189 146.175V146.16Z" fill="black"/>
<path d="M158.376 155.084C158.837 154.483 159.344 153.957 159.897 153.504C160.45 153.05 161.018 152.734 161.606 152.555C162.194 152.377 162.777 152.402 163.345 152.626C163.857 152.825 164.288 153.111 164.633 153.483C164.978 153.855 165.364 154.279 165.784 154.768L172.635 162.652L170.911 164.167L164.131 156.365C163.822 156.008 163.548 155.702 163.31 155.441C163.072 155.181 162.823 155.013 162.559 154.921C162.067 154.753 161.586 154.835 161.114 155.166C160.643 155.498 160.156 155.957 159.644 156.548L158.376 155.084V155.084ZM170.977 157.293L172.184 158.68L166.124 164.004L164.917 162.617L170.977 157.293Z" fill="black"/>
<path d="M148.021 161.836L149.751 164.784L149.984 164.646L154.243 171.898L152.261 173.076L146.272 162.882L148.016 161.846L148.021 161.836ZM151.211 159.572C151.911 159.154 152.565 158.919 153.173 158.863C153.782 158.807 154.345 158.873 154.857 159.067C155.369 159.261 155.835 159.526 156.246 159.868C156.657 160.209 157.012 160.571 157.316 160.954C157.615 161.336 157.859 161.683 158.046 161.999L161.373 167.665L159.385 168.848L156.439 163.835C156.206 163.437 155.932 163.05 155.622 162.672C155.313 162.295 154.958 161.979 154.563 161.729C154.167 161.479 153.736 161.347 153.275 161.321C152.808 161.301 152.311 161.449 151.774 161.77C151.424 161.979 151.125 162.234 150.881 162.535C150.638 162.836 150.471 163.187 150.389 163.585C150.308 163.983 150.324 164.432 150.435 164.932C150.547 165.431 150.78 165.987 151.135 166.589L149.644 166.849C149.101 165.926 148.792 165.003 148.721 164.09C148.65 163.177 148.817 162.331 149.233 161.55C149.644 160.77 150.308 160.112 151.221 159.567L151.211 159.572Z" fill="black"/>
<path d="M140.674 164.803C142.007 164.273 143.209 164.14 144.279 164.395C145.349 164.655 146.191 165.282 146.799 166.282L144.761 167.48C144.401 166.965 143.914 166.639 143.29 166.501C142.672 166.363 141.997 166.445 141.267 166.736C140.603 167.001 140.141 167.343 139.872 167.761C139.604 168.184 139.563 168.628 139.751 169.107C139.862 169.388 140.014 169.586 140.217 169.709C140.42 169.831 140.76 169.887 141.236 169.877C141.718 169.867 142.433 169.806 143.381 169.699C144.416 169.571 145.268 169.535 145.927 169.602C146.586 169.668 147.108 169.841 147.494 170.122C147.874 170.407 148.173 170.815 148.381 171.356C148.645 172.019 148.696 172.672 148.538 173.309C148.381 173.947 148.036 174.523 147.504 175.053C146.972 175.579 146.277 176.012 145.42 176.354C144.583 176.685 143.782 176.848 143.021 176.848C142.261 176.848 141.581 176.68 140.988 176.354C140.39 176.027 139.923 175.558 139.588 174.936L141.602 173.676C141.886 174.176 142.296 174.497 142.834 174.635C143.371 174.773 143.985 174.727 144.664 174.487C145.318 174.258 145.795 173.947 146.099 173.544C146.404 173.141 146.475 172.733 146.307 172.31C146.211 172.065 146.054 171.886 145.836 171.779C145.618 171.672 145.258 171.626 144.756 171.642C144.254 171.662 143.534 171.733 142.59 171.856C141.576 171.983 140.745 172.009 140.09 171.937C139.436 171.861 138.914 171.672 138.524 171.366C138.133 171.06 137.829 170.627 137.606 170.061C137.18 168.974 137.236 167.965 137.783 167.032C138.326 166.098 139.294 165.359 140.679 164.808L140.674 164.803Z" fill="black"/>
<path d="M118.291 169.505C119.498 169.448 120.533 169.673 121.4 170.173C122.267 170.672 122.946 171.386 123.433 172.309C123.92 173.232 124.199 174.288 124.26 175.486C124.305 176.705 124.123 177.797 123.712 178.755C123.296 179.714 122.678 180.479 121.851 181.05C121.025 181.621 120.015 181.937 118.829 181.988C117.541 182.05 116.43 181.774 115.492 181.178C114.554 180.576 113.91 179.724 113.571 178.623L115.807 177.863C116.06 178.516 116.456 179.015 116.983 179.362C117.511 179.709 118.104 179.867 118.768 179.836C119.519 179.801 120.122 179.597 120.583 179.219C121.045 178.842 121.38 178.342 121.582 177.72C121.785 177.098 121.876 176.389 121.846 175.599C121.785 174.38 121.461 173.406 120.878 172.682C120.294 171.957 119.468 171.616 118.393 171.667C117.658 171.702 117.074 171.896 116.633 172.258C116.197 172.62 115.873 173.12 115.66 173.768L113.327 173.324C113.662 172.151 114.255 171.238 115.112 170.581C115.969 169.923 117.029 169.566 118.297 169.51L118.291 169.505Z" fill="black"/>
<path d="M107.861 169.146C109.032 169.273 110.016 169.65 110.817 170.278C111.618 170.905 112.201 171.706 112.566 172.695C112.931 173.684 113.048 174.781 112.916 176.005C112.784 177.234 112.429 178.284 111.846 179.166C111.263 180.049 110.523 180.701 109.605 181.125C108.687 181.548 107.658 181.701 106.507 181.573C105.335 181.446 104.352 181.069 103.55 180.441C102.749 179.814 102.161 179.013 101.796 178.029C101.426 177.05 101.309 175.949 101.441 174.735C101.573 173.506 101.928 172.45 102.501 171.568C103.074 170.686 103.819 170.028 104.737 169.599C105.655 169.171 106.694 169.013 107.856 169.141L107.861 169.146ZM107.627 171.293C106.507 171.17 105.63 171.456 104.996 172.154C104.362 172.853 103.976 173.802 103.85 175C103.718 176.229 103.89 177.244 104.367 178.039C104.844 178.835 105.64 179.299 106.745 179.421C107.506 179.503 108.15 179.401 108.677 179.11C109.204 178.82 109.62 178.381 109.924 177.805C110.229 177.229 110.426 176.535 110.513 175.734C110.65 174.5 110.472 173.48 109.99 172.675C109.509 171.874 108.723 171.41 107.627 171.293V171.293Z" fill="black"/>
<path d="M93.4344 166.381L91.8524 171.981C91.7256 172.424 91.6343 172.888 91.5785 173.378C91.5177 173.867 91.538 174.342 91.6293 174.801C91.7205 175.26 91.9234 175.668 92.2225 176.02C92.5268 176.371 92.9781 176.637 93.5815 176.805C93.972 176.917 94.3624 176.958 94.7478 176.927C95.1332 176.897 95.4983 176.774 95.8431 176.565C96.1879 176.356 96.5023 176.03 96.7862 175.606C97.0702 175.178 97.3085 174.627 97.4961 173.954L98.7131 174.862C98.419 175.897 97.9728 176.754 97.3592 177.432C96.7507 178.11 96.0256 178.569 95.1788 178.809C94.332 179.049 93.399 179.018 92.3797 178.727C91.5988 178.503 90.9751 178.192 90.5137 177.784C90.0522 177.376 89.7176 176.922 89.4995 176.417C89.2866 175.912 89.1598 175.392 89.1192 174.857C89.0837 174.321 89.0989 173.811 89.1649 173.332C89.2308 172.853 89.317 172.434 89.4184 172.083L91.2084 165.754L93.4294 166.391L93.4344 166.381ZM101.396 168.661L98.1706 180.048L96.2082 179.487L97.1412 176.198L96.8775 176.122L99.1695 168.023L101.39 168.661H101.396Z" fill="black"/>
<path d="M87.2484 174.837L86.503 176.52L79.1504 173.236L79.8958 171.553L87.2484 174.837ZM83.9321 162.414C84.6674 162.582 85.357 162.822 86.001 163.133C86.645 163.444 87.1673 163.832 87.578 164.291C87.9837 164.755 88.2068 165.29 88.2474 165.907C88.2829 166.458 88.2068 166.968 88.0192 167.442C87.8316 167.912 87.6084 168.442 87.3448 169.033L83.1157 178.6L81.0215 177.667L85.2049 168.197C85.3976 167.764 85.5598 167.381 85.6917 167.06C85.8235 166.733 85.8742 166.433 85.8438 166.157C85.788 165.637 85.5091 165.229 85.0173 164.944C84.5203 164.653 83.8966 164.403 83.1512 164.189L83.9372 162.414H83.9321Z" fill="black"/>
<path d="M80.4278 160.005C81.1681 160.464 81.7056 160.989 82.0403 161.575C82.375 162.162 82.5271 162.763 82.5017 163.381C82.4764 163.998 82.2989 164.579 81.9642 165.125C81.6499 165.635 81.2898 166.027 80.874 166.303C80.4582 166.578 79.9917 166.741 79.4745 166.792C78.9573 166.843 78.3893 166.792 77.7707 166.644C77.2434 166.502 76.6704 166.303 76.0466 166.053C75.4229 165.803 74.7739 165.533 74.0995 165.232C73.4251 164.931 72.7506 164.64 72.0864 164.344L73.0346 164.39C72.5377 165.176 72.345 165.864 72.4565 166.456C72.5681 167.052 73.0397 167.608 73.8713 168.123C74.3986 168.45 74.9564 168.623 75.5446 168.648C76.1329 168.674 76.6906 168.46 77.2079 168.001L78.6733 169.684C77.8975 170.398 77.005 170.79 75.9959 170.872C74.9869 170.954 73.9017 170.632 72.7456 169.918C71.8481 169.362 71.1635 168.725 70.6818 168.006C70.2051 167.287 70.0175 166.496 70.1138 165.64C70.1544 165.211 70.271 164.798 70.4587 164.411C70.6463 164.018 70.8694 163.615 71.128 163.192L74.926 156.98L76.645 158.041L75.2353 160.346L75.0832 159.841C75.9706 159.326 76.8478 159.076 77.72 159.097C78.5922 159.117 79.4948 159.418 80.4278 159.994V160.005ZM79.1094 161.387C78.5567 161.045 78.0243 160.851 77.507 160.8C76.9898 160.749 76.5182 160.8 76.0923 160.958C75.6663 161.111 75.3114 161.336 75.0376 161.616C74.7485 161.851 74.4849 162.146 74.2415 162.514C73.9981 162.881 73.8054 163.171 73.6685 163.396L73.1817 162.774C73.851 163.059 74.4595 163.319 75.0071 163.554C75.5548 163.789 76.0517 163.998 76.503 164.176C76.9543 164.355 77.3651 164.492 77.7403 164.589C78.0648 164.661 78.3691 164.696 78.6581 164.691C78.9471 164.691 79.2057 164.63 79.439 164.518C79.6723 164.406 79.8751 164.217 80.0373 163.947C80.1996 163.687 80.2807 163.406 80.2858 163.1C80.2858 162.799 80.1996 162.498 80.012 162.203C79.8244 161.907 79.5252 161.631 79.1094 161.376V161.387Z" fill="black"/>
<path d="M70.3472 152.723C71.265 153.508 71.8684 154.385 72.1625 155.344C72.4566 156.308 72.4668 157.292 72.198 158.302C71.9293 159.311 71.412 160.275 70.6464 161.193C69.8553 162.116 68.9781 162.789 68.0248 163.203C67.0715 163.621 66.0979 163.753 65.104 163.605C64.1101 163.457 63.1619 162.993 62.2542 162.213C61.2756 161.372 60.6468 160.413 60.3679 159.327C60.089 158.241 60.2006 157.18 60.6975 156.139L62.8475 157.119C62.5889 157.771 62.5382 158.404 62.6903 159.021C62.8424 159.638 63.172 160.158 63.674 160.591C64.242 161.081 64.8251 161.346 65.4184 161.387C66.0117 161.428 66.5948 161.295 67.1678 160.979C67.7408 160.663 68.2834 160.209 68.8006 159.612C69.5815 158.679 70.0074 157.746 70.0734 156.818C70.1393 155.884 69.764 155.069 68.9476 154.37C68.3899 153.891 67.827 153.63 67.2642 153.595C66.7013 153.559 66.1182 153.702 65.5299 154.028L64.1253 152.101C65.1649 151.473 66.2196 151.213 67.2946 151.32C68.3696 151.427 69.3837 151.897 70.3472 152.723V152.723Z" fill="black"/>
<path d="M61.3515 144.002C61.955 144.461 62.4874 144.961 62.9488 145.507C63.4103 146.052 63.7297 146.624 63.9174 147.21C64.105 147.797 64.0847 148.383 63.8717 148.964C63.679 149.485 63.4001 149.918 63.0401 150.27C62.6801 150.622 62.2592 151.014 61.7826 151.443L54.0446 158.445L52.5132 156.731L60.1701 149.801C60.5199 149.485 60.8242 149.204 61.0726 148.959C61.3211 148.714 61.4935 148.465 61.5797 148.199C61.742 147.7 61.6507 147.215 61.316 146.751C60.9814 146.287 60.5149 145.797 59.9165 145.293L61.3515 143.992V144.002ZM59.3435 156.706L57.9845 157.94L52.6045 151.922L53.9685 150.688L59.3486 156.706H59.3435Z" fill="black"/>
<path d="M54.4859 133.687L51.5803 135.472L51.7223 135.706L44.5776 140.097L43.3809 138.124L53.4311 131.953L54.4859 133.692V133.687ZM56.7829 136.864C57.2089 137.563 57.4523 138.216 57.5182 138.827C57.5841 139.439 57.5232 140.005 57.3407 140.526C57.1581 141.046 56.8995 141.515 56.5649 141.933C56.2302 142.351 55.8752 142.713 55.5 143.024C55.1248 143.336 54.78 143.58 54.4706 143.769L48.8877 147.196L47.6809 145.212L52.6198 142.178C53.0103 141.938 53.3906 141.658 53.7658 141.342C54.136 141.02 54.4453 140.663 54.6887 140.26C54.9321 139.858 55.0588 139.424 55.0741 138.96C55.0893 138.491 54.9321 137.991 54.6075 137.456C54.3946 137.109 54.136 136.813 53.8317 136.568C53.5275 136.329 53.1776 136.165 52.7821 136.089C52.3866 136.012 51.9403 136.033 51.4434 136.155C50.9465 136.278 50.3988 136.517 49.8055 136.884L49.5216 135.39C50.4343 134.829 51.342 134.508 52.2496 134.421C53.1573 134.335 53.9991 134.493 54.78 134.896C55.5609 135.299 56.2302 135.956 56.7829 136.864V136.864Z" fill="black"/>
<path d="M51.4282 126.353C51.9759 127.684 52.128 128.887 51.8846 129.968C51.6412 131.05 51.0327 131.901 50.049 132.534L48.8269 130.504C49.334 130.137 49.6535 129.637 49.7802 129.015C49.907 128.388 49.8157 127.714 49.5166 126.98C49.2427 126.317 48.8979 125.853 48.477 125.593C48.0562 125.328 47.6099 125.297 47.1384 125.491C46.8645 125.603 46.6668 125.761 46.5501 125.965C46.4335 126.169 46.3828 126.511 46.398 126.995C46.4132 127.48 46.4842 128.199 46.611 129.147C46.753 130.188 46.7986 131.039 46.7479 131.707C46.6972 132.376 46.5299 132.901 46.251 133.288C45.9721 133.676 45.5715 133.982 45.0391 134.201C44.3799 134.477 43.7359 134.538 43.097 134.39C42.4631 134.242 41.88 133.905 41.3475 133.375C40.8151 132.85 40.3739 132.156 40.0241 131.299C39.6793 130.463 39.5068 129.662 39.4967 128.898C39.4916 128.133 39.6438 127.449 39.9581 126.842C40.2725 126.236 40.734 125.761 41.3475 125.414L42.6304 127.419C42.1386 127.709 41.8242 128.127 41.6923 128.673C41.5605 129.219 41.6214 129.831 41.8698 130.509C42.1082 131.162 42.4276 131.636 42.8282 131.937C43.2288 132.238 43.6395 132.299 44.0553 132.126C44.2987 132.024 44.4711 131.866 44.5776 131.641C44.6841 131.417 44.7247 131.055 44.6993 130.555C44.674 130.05 44.5928 129.326 44.4559 128.377C44.3139 127.363 44.2734 126.521 44.3393 125.863C44.4052 125.205 44.5827 124.675 44.8819 124.282C45.181 123.89 45.607 123.573 46.1648 123.339C47.2398 122.895 48.2438 122.936 49.1768 123.472C50.1098 124.007 50.8603 124.966 51.4282 126.348V126.353Z" fill="black"/>
<path d="M46.4233 103.903C46.4943 105.116 46.2864 106.157 45.8047 107.039C45.3179 107.916 44.6232 108.609 43.7104 109.114C42.8028 109.619 41.7531 109.91 40.5615 109.992C39.3496 110.058 38.2644 109.89 37.306 109.487C36.3477 109.084 35.5769 108.472 34.9938 107.651C34.4106 106.83 34.0861 105.82 34.0151 104.622C33.9391 103.331 34.1926 102.209 34.7757 101.251C35.3589 100.297 36.1955 99.6392 37.2908 99.2822L38.0819 101.521C37.4379 101.786 36.946 102.189 36.6063 102.724C36.2716 103.26 36.1246 103.862 36.1601 104.525C36.2057 105.274 36.4187 105.881 36.799 106.34C37.1793 106.799 37.6813 107.131 38.305 107.324C38.9287 107.523 39.6335 107.6 40.4144 107.559C41.6263 107.477 42.5898 107.141 43.3048 106.544C44.0198 105.947 44.3443 105.111 44.2784 104.03C44.2327 103.291 44.0299 102.709 43.6648 102.271C43.2997 101.837 42.7977 101.516 42.1486 101.312L42.5543 98.9609C43.7256 99.2771 44.6435 99.8636 45.3077 100.715C45.972 101.567 46.3472 102.628 46.4233 103.897V103.903Z" fill="black"/>
<path d="M46.6265 93.4202C46.5149 94.5982 46.1549 95.5978 45.5464 96.4137C44.9379 97.2297 44.1469 97.8263 43.1733 98.2088C42.1997 98.5913 41.1044 98.7239 39.8874 98.6066C38.6653 98.4893 37.6106 98.1476 36.7283 97.5816C35.8409 97.0155 35.1817 96.2709 34.7456 95.3581C34.3096 94.4453 34.1473 93.4049 34.2538 92.2473C34.3653 91.0693 34.7254 90.0697 35.3338 89.2538C35.9423 88.4379 36.7334 87.8361 37.7019 87.4536C38.6755 87.0711 39.7606 86.9335 40.9725 87.0456C42.1946 87.1629 43.2493 87.5046 44.1367 88.0656C45.0241 88.6316 45.6884 89.3711 46.1295 90.289C46.5707 91.207 46.738 92.2473 46.6315 93.4202H46.6265ZM44.4866 93.2162C44.5931 92.0892 44.2939 91.2121 43.5891 90.5797C42.8842 89.9525 41.936 89.5802 40.7444 89.468C39.5223 89.3507 38.5183 89.5394 37.7273 90.0341C36.9413 90.5287 36.4951 91.3345 36.3886 92.4462C36.3176 93.2111 36.4291 93.8588 36.7283 94.3841C37.0275 94.9093 37.4636 95.3224 38.0467 95.6233C38.6299 95.9191 39.3195 96.1077 40.1156 96.1842C41.3478 96.3015 42.3569 96.1128 43.1479 95.6131C43.9389 95.1133 44.3852 94.3178 44.4917 93.2162H44.4866Z" fill="black"/>
<path d="M47.0166 86.9023L35.6479 83.8323L36.1753 81.8536L39.4612 82.7409L39.5322 82.4758L47.62 84.6584L47.0217 86.9023H47.0166ZM49.1616 78.8652L43.5685 77.3557C43.1273 77.2384 42.6608 77.1517 42.174 77.1007C41.6872 77.0497 41.2157 77.0752 40.7593 77.1721C40.3029 77.2741 39.9023 77.4781 39.5575 77.7892C39.2127 78.1003 38.9541 78.5592 38.7969 79.1661C38.6904 79.5639 38.6549 79.9514 38.6904 80.339C38.7259 80.7266 38.8527 81.0938 39.0707 81.4354C39.2888 81.7771 39.6133 82.0882 40.0392 82.3687C40.4703 82.6492 41.023 82.8786 41.6923 83.0622L40.81 84.3014C39.7756 84.021 38.9186 83.5824 38.234 82.9806C37.5495 82.3789 37.083 81.6547 36.8345 80.8082C36.586 79.9616 36.6013 79.0233 36.8751 77.9932C37.088 77.2027 37.3872 76.5755 37.7878 76.1063C38.1833 75.6371 38.6296 75.2903 39.1316 75.066C39.6336 74.8416 40.1457 74.7039 40.6782 74.6631C41.2106 74.6223 41.7177 74.6274 42.1943 74.6886C42.676 74.7498 43.0918 74.8263 43.4417 74.9232L49.7599 76.6316L49.1616 78.8754V78.8652Z" fill="black"/>
<path d="M52.9645 69.2552C52.8073 69.9997 52.5791 70.6933 52.28 71.346C51.9808 71.9988 51.6056 72.5291 51.1492 72.9473C50.6979 73.3655 50.1604 73.595 49.5519 73.646C49.0043 73.6868 48.4972 73.6205 48.0205 73.4369C47.5489 73.2533 47.0165 73.0391 46.4283 72.7841L36.8496 68.6738L37.7471 66.5574L47.2244 70.6219C47.6605 70.8106 48.0408 70.9636 48.3653 71.091C48.6899 71.2185 48.989 71.2644 49.2629 71.2338C49.7801 71.1675 50.1807 70.8871 50.4596 70.3822C50.7385 69.8773 50.9819 69.2501 51.1847 68.4953L52.9595 69.2552H52.9645ZM40.6628 72.7739L38.9793 72.0498L42.1384 64.6094L43.8219 65.3335L40.6628 72.7739Z" fill="black"/>
<path d="M55.3073 65.6855C54.8611 66.4403 54.3489 66.9859 53.7708 67.3276C53.1928 67.6693 52.5944 67.8325 51.9809 67.8223C51.3673 67.807 50.7842 67.6387 50.2365 67.3072C49.7244 67.0012 49.3288 66.6392 49.05 66.2261C48.7711 65.813 48.6037 65.3438 48.5429 64.8237C48.482 64.3035 48.5226 63.7324 48.6646 63.1102C48.8015 62.5798 48.9891 61.9985 49.2274 61.3661C49.4658 60.7338 49.7294 60.0759 50.0134 59.3925C50.2974 58.7092 50.5813 58.0309 50.8653 57.3578L50.8349 58.3114C50.0489 57.8218 49.3593 57.6383 48.7711 57.7607C48.1778 57.8779 47.6352 58.3624 47.1332 59.209C46.8188 59.7444 46.6515 60.3054 46.6312 60.902C46.616 61.4936 46.8391 62.0495 47.3005 62.5645L45.6525 64.0638C44.9325 63.2938 44.5268 62.4013 44.4305 61.3865C44.3341 60.3717 44.6384 59.2803 45.3331 58.1023C45.8706 57.1895 46.4943 56.4908 47.2042 56.0013C47.9141 55.5117 48.695 55.3077 49.5469 55.3944C49.9728 55.4301 50.3836 55.5372 50.774 55.7208C51.1645 55.9044 51.5701 56.1237 51.9961 56.3786L58.2281 60.1065L57.1987 61.8506L54.8864 60.4635L55.3884 60.3054C55.9158 61.1876 56.1744 62.0699 56.1643 62.947C56.1541 63.8241 55.8752 64.737 55.3124 65.6855H55.3073ZM53.9128 64.38C54.2424 63.819 54.43 63.2836 54.4706 62.7634C54.5112 62.2433 54.4503 61.769 54.2931 61.3406C54.1309 60.9122 53.9078 60.5604 53.6238 60.2901C53.3855 60.0045 53.0863 59.7393 52.7212 59.4996C52.3561 59.26 52.062 59.0713 51.8338 58.9387L52.4474 58.4389C52.1736 59.1172 51.9251 59.7342 51.6969 60.285C51.4687 60.8408 51.271 61.3406 51.0985 61.7945C50.9261 62.2484 50.7943 62.6665 50.7081 63.0439C50.6422 63.3703 50.6118 63.6763 50.6168 63.9669C50.6219 64.2576 50.6827 64.5177 50.7994 64.7523C50.916 64.9869 51.1036 65.1858 51.3724 65.3438C51.636 65.5019 51.9149 65.5784 52.2141 65.5784C52.5133 65.5784 52.8074 65.4815 53.1015 65.2928C53.3905 65.0991 53.6644 64.7931 53.9128 64.3749V64.38Z" fill="black"/>
<path d="M62.3963 55.448C61.6255 56.3812 60.7686 57.0034 59.8153 57.3144C58.862 57.6204 57.8833 57.651 56.8793 57.396C55.8702 57.1411 54.9068 56.6362 53.9839 55.8763C53.0508 55.091 52.3764 54.2241 51.9454 53.2704C51.5195 52.3168 51.3724 51.3427 51.5043 50.3432C51.6361 49.3437 52.0823 48.3849 52.8429 47.4568C53.6644 46.4624 54.6126 45.8147 55.6826 45.5189C56.7576 45.2232 57.8174 45.32 58.8569 45.8045L57.9137 47.9821C57.2596 47.7322 56.6308 47.6863 56.0223 47.8495C55.4138 48.0127 54.8966 48.3492 54.4757 48.8592C53.9991 49.4406 53.7405 50.027 53.71 50.6237C53.6746 51.2204 53.8216 51.8068 54.1411 52.378C54.4605 52.9491 54.922 53.4897 55.5254 53.9997C56.4635 54.7748 57.3965 55.1879 58.3245 55.2389C59.2524 55.2899 60.0587 54.9023 60.7432 54.0711C61.2097 53.4999 61.4582 52.9338 61.4886 52.3627C61.519 51.7966 61.3669 51.2153 61.0322 50.6237L62.9236 49.1805C63.5626 50.2157 63.8364 51.2714 63.7451 52.3525C63.6538 53.4336 63.2025 54.4637 62.3963 55.4429V55.448Z" fill="black"/>
<path d="M70.9407 46.2676C70.4945 46.8796 70.0026 47.4252 69.4651 47.8944C68.9276 48.3636 68.3648 48.7002 67.7816 48.8939C67.1985 49.0877 66.6154 49.0826 66.0373 48.8735C65.5201 48.69 65.084 48.4146 64.729 48.0576C64.3741 47.6955 63.9786 47.2825 63.5425 46.8082L56.4688 39.1281L58.1472 37.5625L65.1499 45.161C65.4694 45.5078 65.7533 45.8087 65.9967 46.0585C66.2401 46.3084 66.4987 46.4767 66.7624 46.5583C67.2594 46.7113 67.7411 46.6144 68.2025 46.2727C68.664 45.931 69.1406 45.4517 69.6274 44.8448L70.9407 46.2676V46.2676ZM58.2841 44.4317L57.0367 43.0803L62.9391 37.5829L64.1814 38.9343L58.279 44.4317H58.2841Z" fill="black"/>
<path d="M77.9634 41.574C77.2738 42.0126 76.6298 42.2676 76.0213 42.3389C75.4128 42.4154 74.85 42.3593 74.3328 42.186C73.8156 42.0075 73.344 41.7576 72.9231 41.4261C72.5022 41.0946 72.1371 40.7479 71.8227 40.3756C71.5083 40.0033 71.2599 39.6616 71.0621 39.3505L67.5684 33.7868L69.5206 32.5476L72.6087 37.4688C72.8521 37.8563 73.1361 38.2388 73.4606 38.606C73.7851 38.9783 74.1452 39.2792 74.5508 39.5188C74.9514 39.7585 75.3875 39.8809 75.8489 39.886C76.3154 39.8962 76.8124 39.7279 77.3397 39.3964C77.6846 39.1772 77.9736 38.912 78.2068 38.606C78.4401 38.2949 78.5973 37.943 78.6683 37.5402C78.7393 37.1424 78.7088 36.6936 78.5821 36.1939C78.4553 35.6941 78.2018 35.1484 77.8316 34.5569L79.3173 34.2509C79.8853 35.1586 80.2199 36.0664 80.3214 36.9792C80.4228 37.892 80.2757 38.7386 79.8853 39.529C79.4948 40.3195 78.8559 41.0028 77.9584 41.5689L77.9634 41.574ZM81.087 39.218L79.2717 36.3264L79.0435 36.4743L74.5711 29.3552L76.5183 28.1211L82.806 38.1317L81.0921 39.218H81.087Z" fill="black"/>
<path d="M88.3484 36.0309C87.0351 36.5969 85.8384 36.7703 84.7583 36.5459C83.6833 36.3216 82.8213 35.7147 82.1824 34.7356L84.1853 33.4759C84.5606 33.9808 85.0575 34.2919 85.6812 34.4092C86.3049 34.5265 86.9743 34.4296 87.6994 34.1185C88.3535 33.838 88.8099 33.481 89.0634 33.0527C89.317 32.6243 89.3474 32.1755 89.1446 31.7064C89.0279 31.431 88.8657 31.2372 88.6628 31.1199C88.46 31.0026 88.1152 30.9618 87.6385 30.9822C87.1568 31.0077 86.4469 31.0893 85.4987 31.227C84.4693 31.3851 83.6174 31.4463 82.9582 31.4004C82.2939 31.3596 81.7666 31.1964 81.3761 30.9261C80.9857 30.6507 80.6764 30.253 80.4533 29.7226C80.1744 29.0647 80.0983 28.4171 80.2403 27.7745C80.3772 27.132 80.7068 26.5455 81.2189 25.9998C81.7362 25.4593 82.4156 25.0054 83.2675 24.6382C84.0941 24.2813 84.8902 24.0926 85.6508 24.0722C86.4114 24.0518 87.0909 24.1997 87.6994 24.5056C88.3028 24.8116 88.7845 25.2706 89.1395 25.8825L87.1619 27.2034C86.8627 26.7138 86.4418 26.4027 85.8993 26.2803C85.3567 26.1579 84.7482 26.2242 84.0738 26.4843C83.4298 26.7342 82.9582 27.0606 82.6692 27.4685C82.3751 27.8765 82.3193 28.2896 82.4968 28.7078C82.5982 28.9474 82.7605 29.1208 82.9836 29.2228C83.2067 29.3248 83.5667 29.3605 84.0687 29.3299C84.5707 29.2993 85.2908 29.2024 86.2289 29.0545C87.2379 28.8964 88.0696 28.8455 88.7237 28.9015C89.3778 28.9576 89.9052 29.131 90.3058 29.4217C90.7064 29.7124 91.0207 30.1408 91.2591 30.6966C91.7205 31.7727 91.6901 32.7824 91.1729 33.7309C90.6557 34.6795 89.7125 35.4495 88.3434 36.0411L88.3484 36.0309Z" fill="black"/>
</g>
<defs>
<clipPath id="clip0_2906_19027">
<rect width="163" height="164" fill="white" transform="translate(34 18)"/>
</clipPath>
</defs>
</svg>
