<?xml version="1.0" standalone="no"?>
<!DOCTYPE svg PUBLIC "-//W3C//DTD SVG 20010904//EN"
 "http://www.w3.org/TR/2001/REC-SVG-20010904/DTD/svg10.dtd">
<svg version="1.0" xmlns="http://www.w3.org/2000/svg"
 width="793.000000pt" height="634.000000pt" viewBox="0 0 793.000000 634.000000"
 preserveAspectRatio="xMidYMid meet">

<g transform="translate(0.000000,634.000000) scale(0.100000,-0.100000)"
fill="#000000" stroke="none">
<path d="M2652 5890 c0 -14 2 -19 5 -12 2 6 2 18 0 25 -3 6 -5 1 -5 -13z"/>
<path d="M2706 5897 c4 -12 -5 -21 -35 -33 -23 -9 -41 -20 -41 -25 0 -5 -4 -9
-10 -9 -5 0 -11 17 -11 38 -2 34 -2 33 -9 -13 -4 -27 -15 -68 -23 -90 -9 -22
-16 -53 -17 -70 -1 -53 -9 -57 -104 -53 -62 2 -86 0 -86 -9 0 -6 -8 -11 -17
-11 -44 1 -179 -15 -187 -23 -6 -5 24 -6 70 -2 130 10 134 9 134 -23 0 -37 17
-63 37 -58 13 4 21 -3 29 -24 10 -26 16 -29 60 -30 66 -2 91 13 47 29 -24 8
-33 17 -33 33 0 12 -5 27 -11 33 -18 18 -1 53 27 53 37 0 39 -2 36 -24 -2 -16
0 -17 6 -7 15 22 25 -5 11 -31 -11 -21 -11 -22 4 -10 13 11 32 90 40 172 2 21
10 27 58 39 47 12 64 12 102 2 35 -10 44 -17 39 -30 -4 -13 -3 -14 9 -5 8 6
26 14 41 18 30 7 29 8 43 -74 3 -19 10 -59 15 -88 9 -57 19 -76 28 -52 5 15
31 -70 32 -107 0 -31 13 -35 85 -28 l65 7 0 49 c0 35 -5 51 -17 58 -17 9 -17
10 0 29 18 20 18 21 1 48 -18 26 -18 27 4 42 16 11 22 24 22 52 0 45 -5 51
-38 40 -15 -5 -44 -11 -64 -13 -36 -6 -38 -5 -62 46 -27 57 -98 137 -126 142
-10 2 -28 8 -39 14 -19 11 -76 9 -88 -3 -3 -3 -12 -1 -20 6 -11 8 -12 7 -7 -5z"/>
<path d="M3926 5894 c-243 -59 -439 -263 -495 -515 -10 -46 -21 -77 -23 -69
-3 8 -12 47 -22 85 -9 39 -32 102 -51 140 -36 72 -144 207 -158 198 -4 -2 5
-17 21 -31 24 -23 29 -36 30 -82 3 -63 12 -114 19 -106 11 10 53 -53 55 -83 2
-32 5 -34 47 -35 37 -1 39 -26 3 -26 -55 0 -64 -8 -47 -40 12 -23 23 -29 52
-32 30 -2 38 -7 38 -23 0 -16 -8 -21 -37 -23 -21 -2 -38 -8 -38 -14 0 -7 -4
-7 -12 0 -19 15 -98 12 -98 -4 0 -7 -6 -14 -12 -16 -9 -3 -5 -15 13 -39 30
-39 41 -103 43 -246 1 -50 4 -95 8 -98 26 -26 110 124 130 233 6 34 15 59 20
56 4 -3 8 -137 8 -299 l0 -294 -412 -3 c-464 -5 -467 -5 -618 -80 -93 -47
-200 -143 -258 -232 -44 -68 -91 -195 -99 -266 -6 -66 -23 -92 -23 -38 -1 105
-67 264 -156 372 -65 79 -122 123 -229 176 -334 167 -744 27 -915 -312 -55
-110 -74 -204 -67 -341 9 -213 97 -381 268 -513 117 -89 232 -128 414 -139 95
-5 119 -3 175 15 202 65 364 201 446 375 37 77 63 169 65 225 l1 35 8 -30 c4
-16 8 -166 9 -333 l1 -303 418 3 417 3 80 28 c119 42 181 82 270 171 92 92
143 181 177 303 20 73 22 105 26 481 l3 402 389 0 c427 0 475 5 594 59 200 90
346 274 385 481 12 64 13 91 12 518 l-1 322 -407 -1 c-318 0 -421 -4 -467 -15z
m299 -423 c125 -58 180 -216 127 -361 l-21 -55 26 -27 c57 -60 -14 -85 -197
-68 -170 16 -222 46 -271 155 -51 113 -15 265 77 328 65 46 192 59 259 28z
m-874 -334 c-1 -12 -15 -9 -19 4 -3 6 1 10 8 8 6 -3 11 -8 11 -12z m-611
-1005 c0 -5 17 -16 38 -25 45 -20 83 -52 107 -92 16 -25 11 -23 -31 16 -69 64
-97 79 -147 79 -71 0 -117 -55 -117 -141 0 -43 5 -47 32 -22 10 9 21 13 25 9
4 -3 -3 -13 -15 -22 -12 -8 -22 -22 -22 -31 0 -14 -2 -14 -14 3 -14 18 -15 18
-21 -9 -4 -16 -14 -27 -24 -27 -13 0 -14 2 -1 10 10 6 14 29 15 82 1 87 21
131 75 159 35 19 100 26 100 11z m-1072 -258 l-3 -119 -32 -3 c-36 -4 -46 16
-13 25 18 5 20 14 20 99 0 87 -1 94 -20 94 -31 0 -24 28 8 32 15 2 31 1 35 -3
4 -3 6 -59 5 -125z m1252 85 c0 -6 -4 -7 -10 -4 -5 3 -10 11 -10 16 0 6 5 7
10 4 6 -3 10 -11 10 -16z m-135 -40 c22 -6 54 -22 71 -34 17 -13 44 -27 60
-31 142 -32 219 -86 184 -129 -17 -21 -31 -19 -74 10 -45 30 -49 31 -86 4 -72
-54 -225 36 -250 145 -10 47 15 57 95 35z m-1205 -9 c0 -5 -7 -10 -15 -10 -21
0 -19 -20 3 -20 15 -1 15 -2 -2 -15 -17 -13 -18 -15 -3 -15 9 0 17 -4 17 -10
0 -5 -11 -10 -25 -10 -22 0 -25 4 -25 38 0 21 3 42 7 45 10 11 43 8 43 -3z
m-62 -57 c-3 -30 -28 -44 -29 -16 0 11 -3 13 -6 5 -4 -10 -8 -10 -19 -1 -11 9
-14 7 -14 -10 0 -11 -4 -21 -10 -21 -12 0 -13 77 -1 84 5 3 14 -1 21 -9 11
-14 15 -13 28 6 13 19 16 20 24 5 5 -9 8 -28 6 -43z m-468 32 c0 -8 -6 -15
-14 -15 -18 0 -22 -14 -21 -80 3 -113 4 -122 20 -116 9 3 15 0 15 -9 0 -8 -3
-15 -7 -15 -5 0 -18 -3 -30 -6 -23 -6 -23 -6 -23 119 0 91 3 127 13 130 25 11
47 7 47 -8z m358 -28 c18 -49 16 -58 -12 -51 -13 3 -27 1 -30 -5 -10 -15 -56
-14 -56 2 0 6 -5 4 -11 -6 -14 -24 -30 -12 -25 18 5 29 -2 35 -29 24 -17 -6
-17 -8 -2 -8 21 -1 23 -19 2 -27 -8 -4 -15 -12 -15 -20 0 -8 -4 -14 -10 -14
-5 0 -10 20 -10 45 0 36 4 45 18 46 17 0 59 6 77 9 31 7 37 -1 31 -35 -10 -51
10 -43 23 10 13 53 32 58 49 12z m1116 -12 c-4 -8 -11 -15 -16 -15 -6 0 -5 6
2 15 7 8 14 15 16 15 2 0 1 -7 -2 -15z m-1361 -62 c7 2 13 18 15 35 4 43 22
41 22 -2 0 -37 -19 -59 -47 -54 -20 4 -30 49 -17 76 6 12 9 6 12 -21 2 -24 8
-37 15 -34z m1497 33 c0 -17 -2 -18 -10 -6 -8 12 -10 12 -16 -3 -5 -14 -9 -15
-20 -6 -19 16 -18 30 3 22 12 -5 15 -2 10 9 -4 12 -1 14 14 11 11 -3 19 -14
19 -27z m-1545 7 c-4 -10 -10 -31 -14 -46 -8 -36 -23 -32 -38 12 -14 39 -10
49 11 32 11 -9 15 -8 20 4 3 8 10 15 17 15 7 0 8 -7 4 -17z m1367 -15 c-7 -7
-12 -8 -12 -2 0 14 12 26 19 19 2 -3 -1 -11 -7 -17z"/>
<path d="M1300 3839 c0 -5 5 -7 10 -4 6 3 10 8 10 11 0 2 -4 4 -10 4 -5 0 -10
-5 -10 -11z"/>
<path d="M2523 5890 c-12 -5 -24 -17 -27 -28 -11 -33 -45 -56 -78 -54 -24 2
-29 -1 -24 -14 3 -8 6 -17 6 -19 0 -9 47 11 64 27 11 10 25 18 30 18 6 0 17 9
24 20 7 11 18 20 26 20 12 0 26 20 26 36 0 6 -23 4 -47 -6z"/>
<path d="M2345 5809 c-4 -6 -5 -13 -2 -16 7 -7 27 6 27 18 0 12 -17 12 -25 -2z"/>
<path d="M2470 5670 c0 -5 5 -10 11 -10 5 0 7 5 4 10 -3 6 -8 10 -11 10 -2 0
-4 -4 -4 -10z"/>
<path d="M2685 5639 c-4 -5 -3 -9 1 -9 3 0 -4 -9 -17 -20 -15 -12 -19 -19 -10
-20 8 0 19 -8 26 -17 12 -16 14 -16 39 0 14 10 26 22 26 27 0 24 20 6 40 -35
24 -50 23 -80 -2 -80 -9 0 -20 -4 -24 -8 -4 -4 -13 -2 -21 4 -9 8 -13 8 -13 1
0 -6 5 -14 10 -17 20 -12 -3 -27 -31 -21 -24 5 -29 2 -29 -15 0 -11 3 -18 8
-16 15 9 52 -12 46 -27 -4 -10 8 -19 38 -29 l43 -16 -37 2 c-21 0 -40 -2 -43
-5 -7 -6 64 -77 78 -78 4 0 7 9 7 19 0 11 4 22 9 25 5 3 8 20 7 37 -1 16 2 33
7 36 6 3 8 2 4 -3 -3 -5 0 -17 7 -26 11 -15 14 -14 30 12 15 27 15 29 0 23
-15 -5 -15 -4 0 25 14 27 14 39 5 77 -8 31 -16 44 -27 43 -8 -2 -17 2 -19 9
-3 7 3 9 18 6 15 -4 20 -3 15 5 -4 7 0 15 8 18 16 6 13 48 -4 68 -11 12 -188
17 -195 5z"/>
<path d="M2677 5500 c-20 -40 -20 -40 -3 -40 24 0 40 28 29 52 -9 21 -10 21
-26 -12z"/>
<path d="M2295 5470 c-3 -5 3 -10 14 -10 12 0 21 5 21 10 0 6 -6 10 -14 10 -8
0 -18 -4 -21 -10z"/>
<path d="M2525 5430 c-7 -12 32 -12 60 0 16 7 13 9 -17 9 -20 1 -40 -3 -43 -9z"/>
<path d="M3073 5353 c-42 -4 -51 -15 -35 -40 4 -6 26 -11 50 -10 39 2 42 4 42
30 0 15 -3 26 -7 25 -5 -1 -27 -3 -50 -5z"/>
<path d="M2990 5330 c0 -24 15 -27 24 -4 9 22 8 24 -9 24 -8 0 -15 -9 -15 -20z"/>
<path d="M2872 5318 c-14 -14 -16 -64 -2 -73 5 -3 12 7 16 22 3 15 7 33 9 40
6 18 -10 24 -23 11z"/>
<path d="M2035 5250 c-3 -5 -1 -10 4 -10 6 0 11 5 11 10 0 6 -2 10 -4 10 -3 0
-8 -4 -11 -10z"/>
<path d="M2071 5246 c-17 -20 -2 -26 66 -26 48 0 63 3 63 14 0 8 -8 17 -17 20
-34 9 -102 5 -112 -8z"/>
<path d="M3133 5239 c11 -7 23 -7 28 -2 5 5 -3 9 -19 11 -24 1 -25 0 -9 -9z"/>
<path d="M2249 5223 c-1 -4 -1 -11 0 -15 0 -4 -11 -10 -27 -14 -15 -3 -35 -8
-45 -11 -10 -2 -23 -1 -30 4 -7 5 -38 7 -69 5 -49 -3 -58 -7 -58 -23 0 -25 5
-26 128 -33 l102 -5 0 25 c0 14 5 34 10 44 7 13 7 21 0 25 -5 3 -11 3 -11 -2z"/>
<path d="M2821 5087 c-6 -6 -11 -16 -11 -22 0 -7 -9 -20 -20 -30 -24 -21 -24
-25 -7 -49 12 -17 15 -17 52 0 22 10 48 25 58 33 20 16 23 56 5 68 -20 12 -65
12 -77 0z"/>
<path d="M2063 5080 c-29 -12 -29 -17 7 -107 33 -81 123 -223 142 -223 1 0 4
42 5 93 1 50 8 127 15 170 l14 77 -31 0 c-18 0 -47 -5 -64 -11 -24 -9 -35 -9
-44 0 -13 13 -14 13 -44 1z"/>
<path d="M3089 4909 l-24 -20 30 7 c17 4 47 7 69 6 33 -1 36 0 26 13 -18 22
-74 19 -101 -6z"/>
<path d="M3105 4865 c-29 -14 -29 -14 33 -15 35 0 72 -5 83 -10 10 -6 19 -7
19 -2 0 32 -88 49 -135 27z"/>
<path d="M3130 4821 c-18 -13 -20 -12 52 -14 31 -1 54 1 50 5 -13 13 -87 19
-102 9z"/>
<path d="M3155 4789 c-3 -3 1 -12 8 -17 14 -12 57 -5 57 8 0 10 -60 19 -65 9z"/>
<path d="M2936 4601 c-4 -6 -32 -18 -62 -27 -74 -21 -63 -29 15 -11 69 16 80
22 64 38 -8 8 -13 8 -17 0z"/>
<path d="M1197 3124 c-247 -53 -429 -209 -520 -446 l-32 -83 -3 -423 -3 -423
403 4 c347 3 411 6 463 21 251 73 433 257 495 501 23 91 25 122 22 528 l-2
337 -377 -1 c-292 0 -394 -4 -446 -15z m93 -408 c5 -13 12 -41 16 -61 6 -32 4
-36 -11 -33 -19 3 -49 82 -40 106 7 20 25 14 35 -12z m176 -9 c6 -17 -32 -107
-46 -107 -20 0 -21 27 -1 73 20 47 37 59 47 34z m-299 -103 c40 -33 48 -54 20
-54 -21 0 -91 66 -83 78 10 17 14 16 63 -24z m430 -21 c5 -13 -64 -63 -84 -63
-26 0 -12 30 25 54 38 26 53 28 59 9z m-175 -63 c43 -43 42 -35 23 -165 -4
-25 -1 -57 9 -85 15 -44 15 -46 -7 -63 -13 -10 -35 -16 -57 -15 -31 3 -35 6
-41 38 -8 49 -25 79 -70 121 -43 41 -56 77 -43 128 11 44 62 81 112 81 27 0
43 -9 74 -40z m-259 -59 c15 -15 -13 -23 -64 -19 -34 2 -45 7 -47 22 -4 17 1
18 49 13 29 -4 57 -11 62 -16z m455 -37 c36 -10 27 -34 -12 -34 -44 0 -89 17
-81 30 7 11 57 13 93 4z m-418 -89 c0 -18 -75 -69 -89 -60 -19 11 -12 24 26
50 43 28 63 32 63 10z"/>
<path d="M2028 1408 c-2 -433 -1 -454 22 -543 67 -261 289 -456 564 -494 44
-6 235 -11 437 -11 l359 0 3 313 c1 171 1 354 -1 405 -6 193 -66 336 -197 468
-87 88 -167 138 -280 175 -68 22 -84 23 -487 27 l-418 3 -2 -343z m970 -240
c15 -13 17 -310 2 -339 -10 -18 -23 -19 -175 -19 -206 0 -192 -14 -194 203 -1
87 1 163 5 168 8 14 343 1 362 -13z"/>
<path d="M5409 1648 c-40 -6 -98 -31 -157 -69 -12 -8 -43 -39 -67 -71 -57 -72
-80 -153 -71 -248 11 -110 18 -155 26 -165 6 -8 15 -56 25 -135 6 -48 30 -105
55 -134 17 -18 30 -38 30 -43 0 -20 66 -86 123 -123 56 -37 67 -40 130 -40 43
0 82 6 103 16 51 24 120 89 133 126 7 18 21 52 32 76 28 62 25 85 -6 47 -13
-16 -24 -33 -25 -37 0 -4 -16 -23 -35 -44 -20 -21 -33 -30 -29 -21 9 25 -9 21
-34 -8 -12 -14 -28 -25 -36 -25 -7 0 -19 -7 -26 -15 -28 -34 -217 -11 -196 23
6 10 -42 33 -75 37 -9 1 -31 15 -49 31 -18 16 -37 28 -42 26 -5 -1 -7 2 -3 8
3 5 1 20 -6 32 -14 26 -24 249 -14 324 4 38 10 51 20 48 10 -4 13 7 13 43 1
95 43 148 125 158 144 17 271 26 291 21 32 -8 62 -51 88 -124 11 -31 26 -64
33 -72 7 -8 16 -36 19 -62 3 -27 9 -69 12 -95 l6 -48 14 45 c13 40 12 151 -1
255 -4 28 -33 92 -45 100 -6 4 -22 24 -36 46 -14 22 -35 44 -47 49 -30 13 -57
35 -57 47 0 14 -166 30 -221 21z m-79 -868 c0 -5 -4 -10 -10 -10 -5 0 -10 5
-10 10 0 6 5 10 10 10 6 0 10 -4 10 -10z"/>
<path d="M5330 1253 c-39 -6 -70 -25 -92 -55 -25 -37 -2 -39 36 -3 28 26 53
35 96 33 14 0 36 0 50 1 24 2 24 2 6 16 -19 15 -44 17 -96 8z"/>
<path d="M5565 1245 c-29 -13 -22 -19 20 -16 84 5 106 3 123 -12 10 -10 22
-17 25 -17 14 0 6 20 -15 40 -26 24 -106 27 -153 5z"/>
<path d="M5638 1194 c-3 -2 -25 -4 -51 -5 -30 -2 -47 -7 -47 -15 0 -15 35 -28
50 -19 6 4 35 6 65 6 52 0 68 9 43 25 -13 8 -55 14 -60 8z"/>
<path d="M5303 1180 c-24 -10 -31 -30 -10 -30 6 1 31 5 55 9 23 5 45 5 47 0 3
-4 19 -7 36 -7 22 1 29 5 27 17 -3 12 -18 16 -68 18 -36 1 -75 -2 -87 -7z"/>
<path d="M5633 1036 c9 -7 17 -21 17 -30 0 -9 7 -19 16 -23 9 -3 20 -15 24
-27 8 -19 9 -19 9 5 1 19 -10 37 -34 58 -20 17 -39 31 -43 31 -4 0 1 -7 11
-14z"/>
<path d="M5431 1003 c22 -28 27 -30 75 -27 30 2 51 9 59 21 18 24 13 26 -33
13 -29 -9 -44 -9 -60 -1 -11 6 -28 11 -38 11 -14 0 -15 -2 -3 -17z"/>
<path d="M5348 929 c-13 -8 73 -58 89 -52 20 8 15 23 -6 23 -11 0 -23 5 -26
10 -3 6 -1 10 4 10 6 0 11 4 11 9 0 9 -56 9 -72 0z"/>
<path d="M5448 933 c6 -2 18 -2 25 0 6 3 1 5 -13 5 -14 0 -19 -2 -12 -5z"/>
<path d="M5590 925 c6 -8 9 -19 5 -26 -9 -13 17 0 50 25 19 15 18 15 -24 16
-37 0 -42 -2 -31 -15z"/>
<path d="M5757 707 c3 -31 3 -67 -1 -81 -11 -44 -73 -103 -130 -125 -136 -51
-263 -33 -348 49 -42 40 -48 52 -48 86 0 22 5 45 10 50 6 6 12 20 14 31 4 21
3 20 -57 -4 -34 -14 -102 -39 -152 -56 -49 -17 -92 -32 -94 -34 -9 -6 56 -78
107 -119 308 -241 745 -200 987 94 30 36 55 69 55 73 0 3 -27 10 -61 13 -50 6
-209 48 -271 71 -15 6 -16 0 -11 -48z"/>
</g>
</svg>
